<?xml version="1.0" encoding="UTF-8"?>
<svg xmlns="http://www.w3.org/2000/svg" xmlns:xlink="http://www.w3.org/1999/xlink" width="2402" height="1682" viewBox="0 0 2402 1682">
<path fill-rule="evenodd" fill="rgb(0%, 0%, 0%)" fill-opacity="1" d="M 1 1 L 2401 1 L 2401 1681 L 1 1681 L 1 1 "/>
<path fill="none" stroke-width="2.16" stroke-linecap="butt" stroke-linejoin="miter" stroke="rgb(90.234375%, 12.939453%, 16.088867%)" stroke-opacity="1" stroke-miterlimit="22.9256" d="M 10 16810 L 24010 16810 L 24010 10 L 10 10 Z M 10 16810 " transform="matrix(0.1, 0, 0, -0.1, 0, 1682)"/>
<path fill-rule="evenodd" fill="rgb(93.75%, 51.367188%, 9.008789%)" fill-opacity="1" d="M 1262.421875 699.820312 C 1263.910156 696.136719 1263.558594 697.378906 1273.25 697.871094 C 1292.121094 698.828125 1322.160156 704.300781 1341.558594 704.796875 C 1350.351562 705.019531 1361.429688 706.808594 1370.21875 706.816406 C 1390.121094 706.84375 1408.078125 706.769531 1427.089844 703.246094 C 1438.921875 701.054688 1471.199219 690.019531 1474.160156 689.960938 C 1468.609375 698.472656 1442.960938 711.433594 1432.730469 714.832031 C 1407.121094 723.339844 1403.171875 719.914062 1389.46875 722.054688 C 1382.011719 723.21875 1381.039062 721.664062 1374.25 721.589844 C 1353.871094 721.359375 1334.691406 717.980469 1315.410156 714.125 C 1307.710938 712.585938 1265.460938 704.417969 1262.421875 699.820312 Z M 1340.820312 612.039062 C 1345.609375 608.558594 1373.238281 609.789062 1381.160156 609.828125 C 1388.53125 609.859375 1394.101562 608.089844 1401.78125 608.960938 L 1420.71875 611.78125 C 1419.71875 614.511719 1418.671875 615.199219 1413.640625 617.558594 C 1394.179688 626.699219 1367.671875 624.851562 1347.839844 618.359375 C 1346.679688 617.980469 1343.710938 617.109375 1342.738281 616.488281 C 1339.738281 614.550781 1340.359375 616.960938 1340.820312 612.039062 Z M 1305.929688 777.730469 C 1348.78125 779.648438 1421.179688 805.328125 1455.429688 772.164062 C 1470.050781 758.011719 1474.160156 730.335938 1482.289062 711.007812 C 1496.328125 677.640625 1493.089844 648.761719 1498.898438 638.429688 C 1498.898438 632.21875 1498.398438 629.140625 1497.910156 623.660156 C 1488.679688 634.441406 1487.179688 639.761719 1473.75 647.980469 C 1462.929688 654.601562 1451.089844 659.441406 1438.761719 662.46875 C 1411.808594 669.089844 1375.410156 667.398438 1348.050781 663.671875 C 1303.800781 657.628906 1248.890625 646.238281 1204.390625 635.140625 L 1190.390625 631.328125 C 1185.789062 629.511719 1187.648438 632.441406 1187.179688 627.621094 C 1207.539062 627.621094 1297.78125 645.320312 1309.890625 644.199219 C 1345.898438 642.179688 1407.441406 646.171875 1438.480469 629.5 C 1455.128906 620.558594 1463.628906 605.96875 1469.488281 588.378906 C 1476.25 568.109375 1470.921875 543.699219 1469.21875 522.71875 C 1451.238281 474.609375 1432.789062 489.21875 1392.308594 498.261719 C 1354.28125 506.75 1322.421875 508 1284.050781 510.738281 L 1226.070312 510.539062 C 1178.058594 506.078125 1162.351562 483.429688 1108.03125 560.339844 C 1094.488281 579.5 1062.78125 620.089844 1078.25 643.511719 C 1081.230469 648.019531 1166.871094 712.597656 1181.019531 721.847656 C 1202.660156 736 1284.800781 774.722656 1305.929688 777.730469 "/>
<path fill-rule="evenodd" fill="rgb(79.6875%, 72.851562%, 59.568787%)" fill-opacity="1" d="M 1011.148438 1427.355469 C 1017.988281 1427.542969 1031.71875 1443.871094 1042.5 1451.171875 C 1045.210938 1453.011719 1052.621094 1456.960938 1049.371094 1460.503906 C 1042.25 1468.246094 1009.539062 1456.175781 1011.148438 1427.355469 Z M 1040.371094 1421.9375 C 1046.320312 1420.066406 1053.839844 1430.710938 1051.5 1433.179688 C 1047.460938 1437.449219 1038.230469 1427.773438 1040.371094 1421.9375 Z M 1103.058594 1407.433594 C 1103.339844 1401.117188 1113.691406 1406.433594 1116.101562 1408.246094 C 1124.371094 1414.464844 1140.949219 1450.011719 1173.308594 1450.023438 C 1177.761719 1450.027344 1210.511719 1443.917969 1198.941406 1455.75 C 1191.921875 1462.933594 1175.949219 1463.773438 1166.5 1462.742188 C 1133.589844 1459.152344 1102.910156 1410.785156 1103.058594 1407.433594 Z M 1037.398438 1321.988281 C 1043.539062 1319.9375 1054.75 1322.03125 1055.640625 1329.339844 C 1049.839844 1336.445312 1033.710938 1332.730469 1037.398438 1321.988281 Z M 1167.71875 1327.613281 C 1160.550781 1330.019531 1151.929688 1323.246094 1149.980469 1315.96875 C 1147.878906 1308.191406 1151.949219 1296.222656 1161.28125 1296.765625 C 1161.621094 1302.90625 1158.589844 1300.039062 1163.019531 1312.832031 C 1164.558594 1317.253906 1169.320312 1322.808594 1167.71875 1327.613281 Z M 1225.960938 1525.199219 C 1230.761719 1519.132812 1237.78125 1517.488281 1240.871094 1507.671875 C 1243.25 1500.136719 1240.878906 1486.296875 1232.699219 1483.273438 C 1227.910156 1485.28125 1223.648438 1487.6875 1218.859375 1489.585938 C 1209.480469 1493.296875 1175.300781 1505.703125 1173.238281 1490.476562 C 1177.699219 1485.003906 1193.371094 1483.925781 1197.511719 1483.085938 C 1200.21875 1482.53125 1203.011719 1481.398438 1205.761719 1480.664062 C 1206.378906 1474.769531 1217.519531 1469.921875 1225.671875 1462.738281 C 1248.949219 1442.222656 1243.789062 1401.578125 1247.109375 1372.605469 C 1250.46875 1343.320312 1241.328125 1335.910156 1234.878906 1310.230469 C 1232.398438 1300.363281 1230.46875 1291.746094 1223.648438 1283.855469 C 1214.488281 1273.257812 1210.011719 1274.382812 1202.550781 1267.898438 C 1186.730469 1267.898438 1165.550781 1271.746094 1151.578125 1279.800781 C 1136.78125 1288.332031 1127.96875 1305.191406 1131.800781 1322.28125 C 1136.570312 1343.515625 1152.109375 1346.046875 1171.339844 1346.078125 C 1180.96875 1346.097656 1189.789062 1345.308594 1198.648438 1341.722656 C 1206.898438 1338.386719 1212.511719 1332.195312 1221.808594 1332.222656 C 1226.171875 1350.375 1199.988281 1355.226562 1187.921875 1357.714844 C 1175.121094 1360.347656 1180.128906 1356.109375 1162.839844 1363.3125 C 1151.320312 1368.109375 1154.609375 1369.800781 1146.371094 1377.515625 C 1130.691406 1392.191406 1100.140625 1396.089844 1080.03125 1376.03125 C 1072.109375 1368.128906 1072.460938 1364.539062 1069.140625 1358.21875 C 1069.058594 1358.054688 1068.859375 1357.722656 1068.789062 1357.589844 C 1068.710938 1357.457031 1068.558594 1357.164062 1068.421875 1356.964844 C 1059.921875 1359.023438 1039.410156 1374.0625 1014.710938 1348.324219 C 1004.371094 1337.546875 1005.769531 1329.316406 996.933594 1328.40625 C 989.976562 1327.691406 979.371094 1339.859375 968.214844 1335.445312 C 966.878906 1331.394531 970.089844 1330.375 973.207031 1328.054688 C 976.414062 1325.667969 976.488281 1324.078125 980.503906 1321.496094 C 986.242188 1317.808594 992.265625 1315.175781 997.761719 1311.046875 C 1004.730469 1305.8125 1019.761719 1282.605469 1027.109375 1285.457031 C 1029.5 1291.476562 1025.460938 1298.816406 1021.679688 1303.300781 C 1015.988281 1310.0625 1015.050781 1312.414062 1016.109375 1322.1875 C 1017.019531 1330.660156 1017.539062 1333.339844 1023.628906 1339.414062 C 1028.539062 1344.3125 1032.300781 1348.398438 1039.789062 1349.046875 C 1047.648438 1339.535156 1054.949219 1340.109375 1059.289062 1325.203125 C 1062.988281 1312.511719 1060.859375 1298.402344 1059.871094 1285.328125 C 1058.769531 1270.785156 1058.480469 1264.027344 1049.371094 1252.296875 C 1044.21875 1245.671875 1031.898438 1234.722656 1028.960938 1229.304688 C 1014.171875 1220.808594 989.210938 1227.074219 978.132812 1239.953125 C 942.121094 1281.8125 948.875 1360.539062 968.3125 1407.59375 C 988.097656 1455.496094 1024.421875 1498.871094 1078.128906 1506.585938 C 1088.128906 1508.023438 1098.601562 1510.382812 1108.410156 1507.785156 C 1115.011719 1506.035156 1131.730469 1499.300781 1136.699219 1504.414062 C 1137.25 1505.5625 1138.460938 1503.175781 1136.160156 1507.6875 C 1135.308594 1509.355469 1134.78125 1509.84375 1133.539062 1511.144531 C 1117.460938 1528.050781 1083.808594 1522.472656 1065.019531 1517.714844 C 1048.769531 1513.601562 1034 1509.753906 1040.339844 1530.519531 C 1044.460938 1544.019531 1049.398438 1553.199219 1064.519531 1554.828125 C 1089.128906 1557.476562 1123.601562 1549.378906 1147.390625 1543.804688 C 1160.390625 1540.761719 1173.878906 1537.597656 1186.929688 1534.847656 C 1196.628906 1532.808594 1217.5 1528.632812 1225.960938 1525.199219 "/>
<path fill-rule="evenodd" fill="rgb(93.75%, 51.367188%, 9.008789%)" fill-opacity="1" d="M 1179.460938 917.859375 C 1183.96875 919.410156 1187.851562 931.863281 1194.890625 935.59375 C 1203.269531 940.035156 1215.96875 938.382812 1225.050781 936.644531 C 1234.429688 934.847656 1244.210938 932.523438 1253.558594 930.492188 C 1269.359375 927.0625 1277.230469 944.660156 1235.429688 952.957031 C 1224.460938 955.132812 1216.25 956.410156 1204.980469 955.195312 C 1196.160156 954.242188 1187 950.910156 1181.988281 943.539062 C 1177.570312 937.035156 1173.03125 924.160156 1179.460938 917.859375 Z M 1219.101562 915.339844 C 1220.050781 910.015625 1232.871094 909.328125 1236.398438 911.890625 C 1235.421875 917.277344 1223.328125 918.414062 1219.101562 915.339844 Z M 1110.980469 828.785156 C 1118.300781 834.308594 1137.070312 862.789062 1141.960938 871.773438 C 1152.910156 891.910156 1156.679688 905.363281 1161.410156 927.625 C 1166.148438 949.898438 1173.691406 966.257812 1200.089844 964.285156 C 1218.898438 962.882812 1241.488281 954.265625 1259.53125 948.273438 C 1301.710938 934.261719 1325.820312 928.160156 1361.589844 899.984375 C 1380.320312 885.226562 1435.660156 850.988281 1444.878906 832.464844 C 1439.710938 822.898438 1413.429688 823.375 1402.46875 822.019531 C 1305.351562 809.996094 1216.769531 768.007812 1136.488281 713.921875 C 1118.421875 701.75 1092.089844 681.890625 1076.589844 666.949219 C 1050.148438 641.449219 1044.25 655.289062 1027.929688 699.964844 C 1022.550781 714.683594 1037.75 721.085938 1047.890625 731.277344 C 1068.21875 751.730469 1079.039062 768.320312 1093.210938 792.835938 C 1099.871094 804.359375 1104.78125 818.261719 1110.980469 828.785156 "/>
<path fill-rule="evenodd" fill="rgb(85.546875%, 30.200195%, 5.099487%)" fill-opacity="1" d="M 1511.769531 757.027344 C 1534.210938 754.441406 1536.210938 712.121094 1574.148438 695.914062 C 1591.960938 688.304688 1599.609375 688.058594 1613.230469 672.679688 C 1627.238281 656.871094 1629.558594 640.320312 1634.480469 631.929688 C 1634.480469 626.628906 1635.148438 626.960938 1632.839844 622.328125 C 1622.710938 618.941406 1623.410156 631.109375 1611.441406 641.179688 C 1603.730469 647.660156 1591.160156 654.558594 1585 642.480469 C 1559.320312 629.050781 1604.941406 582.371094 1613.179688 569.710938 C 1636.089844 534.550781 1630.53125 511.019531 1626.460938 476.199219 C 1624.898438 469.109375 1614.109375 463.25 1610.328125 475.800781 C 1607.609375 484.839844 1607.519531 492.628906 1603.820312 501.949219 C 1600.171875 511.109375 1598.191406 515.191406 1591.21875 522 C 1582.621094 530.398438 1577.859375 527.988281 1569.171875 522.820312 C 1546.871094 517.128906 1547.25 480.210938 1548.128906 462.320312 C 1549.46875 435.46875 1554.910156 414.921875 1551.480469 387.179688 C 1549.078125 367.71875 1540.410156 344.859375 1526.578125 330.738281 C 1500.050781 303.671875 1503.089844 311.058594 1479.578125 298.070312 C 1471.601562 294.058594 1465.960938 304.109375 1475.109375 309 C 1481.261719 312.289062 1486.671875 315.03125 1491.75 320.070312 C 1513.300781 341.429688 1526.269531 363.710938 1522.808594 396.199219 C 1521.210938 411.339844 1519.351562 426.398438 1511 439.808594 C 1498.929688 459.199219 1490.339844 443.710938 1485.640625 430.089844 C 1477.738281 407.230469 1478.429688 382.339844 1476.199219 358.378906 C 1475.289062 348.589844 1468.351562 347.289062 1464.140625 360.289062 C 1458.171875 378.679688 1458.089844 388.839844 1455.640625 407.210938 C 1452.429688 431.269531 1463.019531 473.941406 1474.488281 496.660156 C 1486.128906 519.730469 1501.25 547.199219 1509.898438 571.101562 C 1530.179688 627.160156 1533.589844 678.949219 1517.921875 735.691406 C 1516.199219 741.921875 1512.679688 751.296875 1511.769531 757.027344 "/>
<path fill-rule="evenodd" fill="rgb(93.75%, 51.367188%, 9.008789%)" fill-opacity="1" d="M 1084.898438 417.941406 C 1086.78125 420.53125 1091.46875 440.378906 1093.71875 445.960938 C 1095.691406 450.859375 1108.550781 470.921875 1093.28125 465.300781 C 1071.039062 457.109375 1072.800781 424.621094 1084.898438 417.941406 Z M 983.316406 540.441406 C 1012.289062 547.25 1027.558594 592.410156 1050.089844 581.511719 C 1063.550781 575 1078.621094 545.289062 1103.519531 523.160156 C 1114.890625 513.050781 1134.96875 500.398438 1139.988281 485.109375 C 1137.210938 478.019531 1128.949219 470.921875 1124.949219 461.230469 C 1121.578125 453.058594 1118.019531 437.609375 1119.140625 429.050781 C 1120.71875 416.980469 1119.789062 406.730469 1123.25 394.46875 C 1126.25 383.839844 1129.738281 374.609375 1130.71875 363.289062 C 1131.691406 352.078125 1126.980469 340.558594 1113.851562 343.449219 C 1103.339844 345.75 1093.261719 348.109375 1082.921875 351.171875 C 1047.789062 361.570312 1009 381.730469 980.339844 403.960938 C 969.097656 412.671875 948.589844 430 940.027344 440.839844 C 934.59375 447.71875 931.78125 463.539062 935.753906 471.320312 C 946.09375 491.539062 968.328125 524.5 983.316406 540.441406 "/>
<path fill-rule="evenodd" fill="rgb(85.546875%, 30.200195%, 5.099487%)" fill-opacity="1" d="M 970.085938 333.050781 C 970.25 327.398438 982.515625 320.269531 987.769531 321.28125 C 987.609375 327.089844 975.648438 333.941406 970.085938 333.050781 Z M 1074.75 278.929688 C 1078.320312 299.121094 1018.871094 320.679688 1011.03125 311.878906 C 1003.679688 303.621094 1033.648438 292.871094 1039.019531 291.429688 C 1052.050781 287.949219 1062.539062 282.300781 1074.75 278.929688 Z M 845.097656 524.691406 C 852.960938 466.738281 901.726562 400.660156 950.496094 367.171875 C 967.03125 355.820312 987.101562 343.429688 1005.109375 334.691406 C 1057.640625 309.171875 1126.378906 300.800781 1162.980469 230.351562 C 1179.390625 198.769531 1178.058594 188.578125 1187.179688 167.621094 C 1187.179688 149.359375 1177.410156 147.660156 1170.359375 163.488281 C 1160.789062 185.011719 1151.171875 213.179688 1130.359375 229.390625 C 1127.519531 231.601562 1119.449219 236.378906 1118.078125 238.691406 C 1104.121094 258.191406 1050.480469 266.890625 1040.539062 232.890625 C 1036.089844 217.671875 1041.769531 200.480469 1050.261719 187.878906 C 1056.019531 179.339844 1070.019531 162.359375 1079.308594 158.609375 C 1081.898438 154.679688 1081.300781 154.71875 1079.648438 150.28125 C 1071.371094 147.03125 1062.898438 153 1053.621094 158.578125 C 980.90625 202.351562 1025.75 261.828125 988.234375 281.21875 C 970.824219 290.21875 959.101562 276.601562 956.171875 262.871094 C 954.859375 256.71875 956.050781 252.429688 949.609375 249.519531 C 938.058594 252.789062 933.980469 272.128906 932.53125 281.929688 C 930.242188 297.421875 934.25 315.390625 930.648438 330.511719 C 925.570312 351.839844 903.089844 363.261719 887.53125 346.351562 C 881.375 339.660156 884.285156 334.691406 873.46875 334.691406 C 865.214844 347.351562 868.609375 349.089844 867.066406 364.691406 C 866.335938 372.121094 870.265625 386.898438 861.746094 408.070312 C 852.953125 429.921875 839.957031 444.601562 836.996094 474.371094 C 836.046875 483.929688 835.863281 493.089844 835.859375 502.921875 C 835.859375 513.140625 833.65625 521.980469 845.097656 524.691406 "/>
<path fill-rule="evenodd" fill="rgb(85.546875%, 30.200195%, 5.099487%)" fill-opacity="1" d="M 959.222656 969.683594 C 961.585938 969.617188 974.65625 974.921875 978.136719 976.128906 C 983.789062 978.09375 995.0625 979.5625 996.421875 985.992188 C 986.628906 999.015625 961.140625 981.332031 959.222656 969.683594 Z M 995.191406 967.382812 C 961.683594 955.773438 926.175781 932.597656 901.078125 907.773438 C 876.527344 883.484375 855.964844 846.792969 838.824219 816.628906 C 804.355469 755.988281 818.269531 740.183594 813.195312 688.683594 C 808.3125 639.179688 775.621094 638.191406 769.332031 579.121094 C 769.359375 575.710938 767.433594 570.839844 766.605469 567.230469 C 765.425781 562.109375 765.917969 559.449219 759.660156 559.328125 C 753.8125 561.109375 755.441406 603.78125 756.105469 608.410156 C 761.328125 644.75 768.027344 655.019531 787.953125 685.421875 C 794.199219 694.953125 806.027344 710.847656 803.203125 722.617188 C 793.296875 722.609375 784.085938 714.265625 774.890625 711.347656 C 766.980469 708.835938 748.1875 707.605469 744.410156 717.375 C 740.195312 728.257812 763.316406 731.972656 784.113281 756.554688 C 816.179688 794.453125 810.875 846.011719 764.34375 801.066406 C 760.40625 797.265625 757.714844 792.132812 751.488281 794.605469 C 741.964844 802.824219 765.410156 838.675781 771.328125 847.519531 C 793.578125 880.769531 827.203125 897.847656 861.597656 915.589844 C 877.824219 923.957031 898.4375 939.214844 895.988281 959.886719 C 883.535156 969.84375 869.210938 950.339844 860.765625 955.34375 C 857.265625 961.257812 862.304688 964.953125 866.832031 968.742188 C 870.996094 972.222656 875.257812 975.554688 879.542969 978.789062 C 906.0625 998.8125 942.507812 1015.128906 975.390625 1016.542969 C 993.671875 1017.328125 998.152344 1018.339844 1017.800781 1016.378906 C 1026.941406 1015.46875 1045.589844 1013.617188 1048.28125 1002.355469 C 1050.859375 991.5 1032.898438 985.484375 1024.859375 981.910156 C 1016.308594 978.109375 1002.859375 969.777344 995.191406 967.382812 "/>
<path fill-rule="evenodd" fill="rgb(93.75%, 51.367188%, 9.008789%)" fill-opacity="1" d="M 912.753906 667.5 C 910.753906 660.628906 923.128906 651.941406 928.871094 649.371094 C 936.15625 646.121094 951.371094 643.699219 956.488281 651.691406 C 954.652344 655.589844 956.679688 653.089844 954.0625 655.71875 C 952.722656 657.070312 951.101562 658.039062 949.363281 658.980469 C 940.980469 663.488281 921.738281 670.78125 912.753906 667.5 Z M 925.917969 629.589844 C 926.464844 623.53125 935.632812 620.300781 940.761719 622.671875 C 939.417969 627.539062 930.832031 629.488281 925.917969 629.589844 Z M 858.621094 707.421875 C 874.863281 722.960938 873.484375 720.597656 897.101562 698.742188 C 943.644531 655.671875 975.039062 686.394531 1005.421875 670.46875 C 1023.921875 660.769531 1024.609375 639.320312 1033.789062 630.199219 C 1033.609375 622.71875 1023.421875 616.390625 1018.699219 611.03125 C 1013.691406 605.351562 1007.03125 598.339844 1002.53125 592.558594 C 992.257812 579.359375 980.910156 566.859375 971.445312 553.390625 C 961.535156 539.28125 952.726562 526.019531 943.140625 511.429688 C 932.03125 494.519531 924.570312 470.328125 907.773438 483.789062 C 900.21875 489.839844 887.257812 518.601562 882.375 528.648438 C 870.796875 552.488281 858.339844 597.96875 856.644531 625.640625 C 855.597656 642.71875 852.476562 696.59375 858.621094 707.421875 "/>
<path fill-rule="evenodd" fill="rgb(93.75%, 51.367188%, 9.008789%)" fill-opacity="1" d="M 1017.949219 940.652344 C 1026.578125 938.46875 1052.171875 952.785156 1063.140625 955.457031 C 1079.078125 959.335938 1099.621094 958.226562 1108.980469 943.300781 C 1118.101562 928.75 1109.730469 908.175781 1105.910156 893 C 1102.121094 877.960938 1100.289062 855.792969 1097.550781 839.394531 C 1098.730469 827.324219 1053.988281 747.804688 1034.980469 742.261719 C 1030.109375 740.839844 1021.25 747.019531 1018.210938 750.585938 C 1008.589844 761.847656 1002.988281 798.722656 999.890625 813.414062 C 996.398438 829.945312 992.15625 842.851562 992.242188 860.199219 C 992.410156 893.847656 981.519531 922.859375 1017.949219 940.652344 "/>
<path fill-rule="evenodd" fill="rgb(79.6875%, 72.851562%, 59.568787%)" fill-opacity="1" d="M 1195.429688 1068.335938 C 1190.679688 1069.832031 1185.851562 1064.296875 1189.191406 1061.109375 C 1192.039062 1058.390625 1197.328125 1062.628906 1195.429688 1068.335938 Z M 1187.070312 1038.199219 C 1198.328125 1023.898438 1230.730469 1054.015625 1214.019531 1067.09375 C 1207.230469 1065.277344 1204.769531 1058.066406 1200.628906 1052.558594 C 1196.71875 1047.339844 1190.128906 1043.730469 1187.070312 1038.199219 Z M 1185.238281 1256.023438 C 1185.238281 1248.152344 1195.019531 1237.527344 1199.140625 1230.398438 C 1212.269531 1207.691406 1200.960938 1196.113281 1215.011719 1166.121094 C 1221.238281 1152.820312 1223.101562 1148.5 1223.351562 1133.308594 C 1223.558594 1120.386719 1220.371094 1109.4375 1220.03125 1096.714844 C 1219.421875 1073.472656 1226.710938 1051.246094 1211.121094 1026.210938 C 1205.261719 1016.789062 1199.121094 1012.652344 1192.449219 1004.660156 C 1185.128906 1000.847656 1171.75 1007 1165.371094 1011.558594 C 1140.53125 1029.328125 1157.480469 1079.808594 1157.519531 1118.449219 C 1157.519531 1124.246094 1156.859375 1129.519531 1156.421875 1135.214844 C 1154.820312 1156.015625 1140.28125 1179.851562 1125.570312 1194.421875 C 1121.660156 1198.296875 1117.988281 1200.109375 1117.921875 1205.566406 L 1127.019531 1211.273438 C 1170.019531 1240.117188 1139.730469 1266.761719 1185.238281 1256.023438 "/>
<path fill-rule="evenodd" fill="rgb(93.75%, 51.367188%, 9.008789%)" fill-opacity="1" d="M 1215.789062 367.261719 C 1224.070312 357.109375 1256.308594 366.761719 1255.199219 377.980469 C 1247.398438 383.671875 1218.230469 379.011719 1215.789062 367.261719 Z M 1180.25 338.648438 C 1170.441406 341.238281 1164.339844 347.5 1158.660156 355.648438 C 1150.320312 367.640625 1150.941406 369.109375 1146.960938 382.550781 C 1134.898438 423.21875 1125.25 444.148438 1154.160156 468.648438 C 1169.71875 481.820312 1191.601562 457.328125 1203.851562 448.351562 L 1273.71875 402.429688 C 1281.789062 397.550781 1289.898438 393.320312 1297.480469 387.589844 C 1302.75 383.609375 1315.769531 370.511719 1307.058594 364.25 C 1291.019531 352.730469 1202.898438 332.660156 1180.25 338.648438 "/>
<path fill-rule="evenodd" fill="rgb(93.75%, 51.367188%, 9.008789%)" fill-opacity="1" d="M 941.75 879.800781 C 956.351562 878.292969 957.667969 870.410156 959.878906 849.039062 C 962.964844 819.261719 962.679688 797.304688 980.507812 770.300781 C 983.773438 765.351562 987.429688 760.675781 990.621094 755.671875 C 993.246094 751.550781 997.484375 744.089844 1000.140625 740.714844 C 1000.25 728.484375 992.855469 716.734375 982.324219 710.742188 C 971.902344 704.816406 951.523438 707.480469 940.742188 711.714844 C 920.253906 719.769531 900.875 738.558594 888.3125 756.269531 C 871.902344 779.410156 883.074219 797.359375 899.753906 824.980469 C 906.488281 836.136719 932.011719 874.171875 941.75 879.800781 "/>
<path fill-rule="evenodd" fill="rgb(93.75%, 51.367188%, 9.008789%)" fill-opacity="1" d="M 1337.730469 461.269531 C 1336.738281 449.691406 1364.53125 447.871094 1371.628906 452.898438 C 1371.589844 460.808594 1346.03125 468.359375 1337.730469 461.269531 Z M 1231.320312 445.53125 C 1230.96875 486.640625 1295.269531 477.761719 1321.800781 476.820312 C 1343.921875 476.03125 1382.230469 473.699219 1403.53125 466.921875 C 1411.550781 464.371094 1418.988281 460.460938 1426.660156 458.03125 C 1426.449219 450.640625 1398.011719 423.121094 1391.179688 417.671875 C 1371.941406 402.308594 1364.660156 391.261719 1337.011719 397.441406 C 1318.820312 401.5 1297.550781 409.28125 1281.179688 417.800781 C 1265.898438 425.761719 1246.5 439.449219 1231.320312 445.53125 "/>
<path fill-rule="evenodd" fill="rgb(95.701599%, 62.304688%, 11.767578%)" fill-opacity="1" d="M 1145.609375 954.6875 C 1150.039062 961.117188 1150.890625 964.449219 1157 970.507812 C 1163.019531 976.46875 1165.398438 977.308594 1171.890625 981.898438 C 1190.261719 986.195312 1244.871094 976.496094 1265.019531 970.675781 C 1312.960938 956.816406 1365.53125 929.199219 1400.691406 893.585938 C 1410.570312 883.578125 1448.390625 845.964844 1444.878906 832.464844 C 1435.660156 850.988281 1380.320312 885.226562 1361.589844 899.984375 C 1325.820312 928.160156 1301.710938 934.261719 1259.53125 948.273438 C 1241.488281 954.265625 1218.898438 962.882812 1200.089844 964.285156 C 1173.691406 966.257812 1166.148438 949.898438 1161.410156 927.625 C 1156.679688 905.363281 1152.910156 891.910156 1141.960938 871.773438 C 1137.070312 862.789062 1118.300781 834.308594 1110.980469 828.785156 L 1121.75 857.320312 C 1125.230469 867.753906 1128.238281 877.464844 1131.328125 888.3125 C 1138.261719 912.644531 1140.980469 930.429688 1145.609375 954.6875 "/>
<path fill-rule="evenodd" fill="rgb(85.546875%, 45.483398%, 4.707336%)" fill-opacity="1" d="M 845.097656 524.691406 C 852.046875 523.589844 851.835938 518.859375 854.503906 512.660156 C 856.675781 507.601562 859.128906 502.878906 861.59375 497.96875 C 866.378906 488.441406 871.523438 479.050781 877.101562 469.941406 C 894.445312 441.609375 897.890625 442.039062 914.910156 420.660156 C 922.964844 410.539062 951.027344 388.609375 962.5 381.171875 C 1018.988281 344.558594 1094.871094 330.511719 1134.488281 289.921875 C 1166.769531 256.851562 1187.71875 214.828125 1187.179688 167.621094 C 1178.058594 188.578125 1179.390625 198.769531 1162.980469 230.351562 C 1126.378906 300.800781 1057.640625 309.171875 1005.109375 334.691406 C 987.101562 343.429688 967.03125 355.820312 950.496094 367.171875 C 901.726562 400.660156 852.960938 466.738281 845.097656 524.691406 "/>
<path fill-rule="evenodd" fill="rgb(85.546875%, 45.483398%, 4.707336%)" fill-opacity="1" d="M 995.191406 967.382812 C 991.324219 964.011719 964.355469 948.277344 949.652344 936.390625 C 938.191406 927.125 919.015625 910.171875 909.953125 898.898438 C 886.476562 869.703125 864.683594 842.113281 849.574219 805.886719 C 845.839844 796.929688 841.550781 788.339844 839.007812 778.851562 C 837.984375 775.042969 837.160156 765.246094 835.992188 763.0625 C 832.425781 756.378906 834.191406 766.183594 830.902344 748.359375 C 826.53125 724.660156 831.332031 698.515625 827.152344 674.921875 C 822.578125 649.121094 814.738281 644.710938 799.808594 626.058594 C 793.941406 618.730469 788.101562 612.601562 782.609375 604.671875 C 776.804688 596.289062 774.121094 586.179688 769.332031 579.121094 C 775.621094 638.191406 808.3125 639.179688 813.195312 688.683594 C 818.269531 740.183594 804.355469 755.988281 838.824219 816.628906 C 855.964844 846.792969 876.527344 883.484375 901.078125 907.773438 C 926.175781 932.597656 961.683594 955.773438 995.191406 967.382812 "/>
<path fill-rule="evenodd" fill="rgb(79.6875%, 72.851562%, 59.568787%)" fill-opacity="1" d="M 1109.820312 1360.753906 C 1112.570312 1355.566406 1123.339844 1357.480469 1124.828125 1362.902344 C 1122.460938 1366.515625 1120.421875 1366.351562 1115.949219 1365.949219 C 1108.421875 1365.273438 1110.230469 1361.574219 1109.820312 1360.753906 Z M 1126.53125 1374.777344 C 1127.171875 1363.746094 1130.929688 1358.71875 1122.738281 1349.140625 C 1117.519531 1343.042969 1112.730469 1338.871094 1108.570312 1331.628906 C 1099.5 1315.792969 1100.78125 1297.582031 1110.789062 1282.578125 C 1120.410156 1268.171875 1137.238281 1262.339844 1127.289062 1242.671875 C 1121.488281 1231.207031 1104.890625 1222.753906 1096.480469 1211.488281 C 1086.679688 1211.488281 1079.988281 1210.570312 1071.378906 1214.453125 C 1041.558594 1227.90625 1061.578125 1229.464844 1070.96875 1241.59375 C 1076.628906 1248.894531 1078.96875 1251.417969 1083.269531 1259.976562 C 1091.300781 1275.949219 1092.910156 1294.820312 1090.378906 1312.617188 C 1086.371094 1340.800781 1074.238281 1341.96875 1083.738281 1360.445312 C 1092.21875 1376.9375 1109.75 1379.46875 1126.53125 1374.777344 "/>
<path fill-rule="evenodd" fill="rgb(95.701599%, 62.304688%, 11.767578%)" fill-opacity="1" d="M 1198.398438 470.269531 C 1193.75 484.039062 1199.808594 482.710938 1205.179688 490.058594 C 1213.398438 490.910156 1221.511719 493.089844 1233.601562 494.101562 C 1277.671875 497.808594 1342.769531 492.589844 1385.839844 483.878906 C 1401.171875 480.78125 1426.691406 479.519531 1426.660156 458.03125 C 1418.988281 460.460938 1411.550781 464.371094 1403.53125 466.921875 C 1382.230469 473.699219 1343.921875 476.03125 1321.800781 476.820312 C 1295.269531 477.761719 1230.96875 486.640625 1231.320312 445.53125 C 1224.089844 450.269531 1201.261719 463.761719 1198.398438 470.269531 "/>
<path fill-rule="evenodd" fill="rgb(92.1875%, 87.109375%, 77.34375%)" fill-opacity="1" d="M 1205.761719 1480.664062 C 1225.25 1476.46875 1242.671875 1462.320312 1254.339844 1446.890625 L 1261.949219 1433.640625 C 1263.660156 1429.039062 1263.628906 1431.921875 1262.390625 1428.214844 C 1264.980469 1427.230469 1265.078125 1425.132812 1265.960938 1421.890625 C 1266.710938 1419.128906 1267.28125 1417.101562 1267.328125 1413.964844 C 1271.699219 1408.808594 1270.460938 1377.484375 1269.269531 1368.882812 C 1268.308594 1361.941406 1262.210938 1333.613281 1259.421875 1329.054688 C 1255.679688 1324.78125 1251.011719 1308.730469 1249.058594 1302.535156 C 1248.949219 1295.8125 1237.21875 1283.714844 1232.46875 1279.011719 C 1224.328125 1270.945312 1214.21875 1267.898438 1202.550781 1267.898438 C 1210.011719 1274.382812 1214.488281 1273.257812 1223.648438 1283.855469 C 1230.46875 1291.746094 1232.398438 1300.363281 1234.878906 1310.230469 C 1241.328125 1335.910156 1250.46875 1343.320312 1247.109375 1372.605469 C 1243.789062 1401.578125 1248.949219 1442.222656 1225.671875 1462.738281 C 1217.519531 1469.921875 1206.378906 1474.769531 1205.761719 1480.664062 "/>
<path fill-rule="evenodd" fill="rgb(92.1875%, 87.109375%, 77.34375%)" fill-opacity="1" d="M 1185.238281 1256.023438 C 1187.109375 1256.019531 1202.308594 1254.675781 1203.261719 1254.296875 C 1206.171875 1251.261719 1211.578125 1230.269531 1214.308594 1223.777344 C 1226.929688 1193.757812 1228.320312 1196.882812 1235.421875 1161.765625 L 1240.679688 1114.507812 C 1240.679688 1110.507812 1239.710938 1108.800781 1239.589844 1104.644531 C 1239.050781 1086.101562 1237.320312 1067.9375 1230.851562 1050.050781 C 1225.769531 1036.011719 1209.601562 1005.136719 1192.449219 1004.660156 C 1199.121094 1012.652344 1205.261719 1016.789062 1211.121094 1026.210938 C 1226.710938 1051.246094 1219.421875 1073.472656 1220.03125 1096.714844 C 1220.371094 1109.4375 1223.558594 1120.386719 1223.351562 1133.308594 C 1223.101562 1148.5 1221.238281 1152.820312 1215.011719 1166.121094 C 1200.960938 1196.113281 1212.269531 1207.691406 1199.140625 1230.398438 C 1195.019531 1237.527344 1185.238281 1248.152344 1185.238281 1256.023438 "/>
<path fill-rule="evenodd" fill="rgb(95.701599%, 62.304688%, 11.767578%)" fill-opacity="1" d="M 1305.929688 777.730469 C 1312.980469 784.074219 1374.628906 796.109375 1381.558594 797.410156 C 1403.328125 801.507812 1444.378906 810.277344 1462.410156 795.851562 L 1476.140625 781.1875 C 1482.238281 773.320312 1492.949219 729.867188 1495.089844 716.824219 C 1496.011719 711.199219 1497.289062 704.582031 1497.828125 698.777344 C 1498.691406 689.4375 1502.300781 643.988281 1498.898438 638.429688 C 1493.089844 648.761719 1496.328125 677.640625 1482.289062 711.007812 C 1474.160156 730.335938 1470.050781 758.011719 1455.429688 772.164062 C 1421.179688 805.328125 1348.78125 779.648438 1305.929688 777.730469 "/>
<path fill-rule="evenodd" fill="rgb(95.701599%, 62.304688%, 11.767578%)" fill-opacity="1" d="M 983.316406 540.441406 L 1022.761719 591.140625 C 1028.550781 598.261719 1037.53125 609.859375 1046.238281 612.210938 C 1058.828125 615.621094 1058.480469 608.878906 1070 591.589844 C 1081.371094 574.539062 1094.078125 555.988281 1108.230469 539.761719 L 1133.578125 509.691406 C 1135.890625 506.828125 1147.019531 499.660156 1139.988281 485.109375 C 1134.96875 500.398438 1114.890625 513.050781 1103.519531 523.160156 C 1078.621094 545.289062 1063.550781 575 1050.089844 581.511719 C 1027.558594 592.410156 1012.289062 547.25 983.316406 540.441406 "/>
<path fill-rule="evenodd" fill="rgb(95.701599%, 62.304688%, 11.767578%)" fill-opacity="1" d="M 858.621094 707.421875 C 858.613281 713.242188 861.789062 736.8125 866.699219 739.3125 C 875.730469 743.902344 886.257812 732.097656 892.023438 726.328125 C 909.429688 708.921875 914.738281 699.816406 940.554688 693.710938 C 970.347656 686.667969 972.039062 693.675781 995.128906 691.878906 C 1012.421875 690.53125 1020.769531 677.300781 1027.148438 662.539062 C 1030.121094 655.671875 1037.019531 636.609375 1033.789062 630.199219 C 1024.609375 639.320312 1023.921875 660.769531 1005.421875 670.46875 C 975.039062 686.394531 943.644531 655.671875 897.101562 698.742188 C 873.484375 720.597656 874.863281 722.960938 858.621094 707.421875 "/>
<path fill-rule="evenodd" fill="rgb(95.701599%, 62.304688%, 11.767578%)" fill-opacity="1" d="M 1309.890625 644.199219 C 1314.070312 647.359375 1375.589844 652.359375 1385.101562 652.359375 C 1409.398438 652.339844 1433.738281 652.308594 1455.179688 639.308594 C 1476 626.691406 1486.199219 612.199219 1486.058594 587.058594 C 1485.96875 569.308594 1488.46875 569.449219 1481.660156 551.828125 C 1479.328125 545.78125 1472.578125 526.621094 1469.21875 522.71875 C 1470.921875 543.699219 1476.25 568.109375 1469.488281 588.378906 C 1463.628906 605.96875 1455.128906 620.558594 1438.480469 629.5 C 1407.441406 646.171875 1345.898438 642.179688 1309.890625 644.199219 "/>
<path fill-rule="evenodd" fill="rgb(85.15625%, 45.092773%, 5.099487%)" fill-opacity="1" d="M 1569.171875 522.820312 C 1564.230469 512.46875 1562.191406 504.828125 1562.21875 493.050781 C 1562.230469 487.398438 1563.558594 462.941406 1565.210938 459.371094 C 1565.199219 452.101562 1567 439.878906 1568.179688 432.660156 L 1569.171875 406.929688 C 1569.171875 396.890625 1568.769531 390.128906 1566.609375 380.789062 C 1563.578125 367.691406 1556.980469 353.140625 1548.960938 342.03125 C 1541.871094 332.210938 1530.171875 321.089844 1519.761719 314.828125 C 1510.988281 309.558594 1489.039062 298.078125 1479.578125 298.070312 C 1503.089844 311.058594 1500.050781 303.671875 1526.578125 330.738281 C 1540.410156 344.859375 1549.078125 367.71875 1551.480469 387.179688 C 1554.910156 414.921875 1549.46875 435.46875 1548.128906 462.320312 C 1547.25 480.210938 1546.871094 517.128906 1569.171875 522.820312 "/>
<path fill-rule="evenodd" fill="rgb(92.1875%, 87.109375%, 77.34375%)" fill-opacity="1" d="M 1126.53125 1374.777344 C 1158.691406 1360.785156 1133.679688 1352.824219 1124.609375 1338.382812 C 1114.328125 1322.023438 1116.621094 1299.921875 1127.921875 1284.839844 C 1138.941406 1270.121094 1154.898438 1270.589844 1138.019531 1239.863281 C 1129.421875 1224.199219 1112.710938 1216.21875 1096.480469 1211.488281 C 1104.890625 1222.753906 1121.488281 1231.207031 1127.289062 1242.671875 C 1137.238281 1262.339844 1120.410156 1268.171875 1110.789062 1282.578125 C 1100.78125 1297.582031 1099.5 1315.792969 1108.570312 1331.628906 C 1112.730469 1338.871094 1117.519531 1343.042969 1122.738281 1349.140625 C 1130.929688 1358.71875 1127.171875 1363.746094 1126.53125 1374.777344 "/>
<path fill-rule="evenodd" fill="rgb(95.701599%, 62.304688%, 11.767578%)" fill-opacity="1" d="M 1017.949219 940.652344 C 1038.910156 954.460938 1074.089844 966.714844 1099.101562 973.0625 C 1107.980469 975.316406 1118.761719 968.382812 1123.21875 960.492188 C 1135.730469 938.332031 1103.851562 844.105469 1097.550781 839.394531 C 1100.289062 855.792969 1102.121094 877.960938 1105.910156 893 C 1109.730469 908.175781 1118.101562 928.75 1108.980469 943.300781 C 1099.621094 958.226562 1079.078125 959.335938 1063.140625 955.457031 C 1052.171875 952.785156 1026.578125 938.46875 1017.949219 940.652344 "/>
<path fill-rule="evenodd" fill="rgb(95.701599%, 62.304688%, 11.767578%)" fill-opacity="1" d="M 941.75 879.800781 C 945.476562 886.117188 956.492188 896.316406 962.449219 900.835938 C 978.34375 896.503906 972.949219 876.65625 973.386719 862.121094 C 973.742188 850.242188 977.136719 830.210938 979.4375 818.695312 C 983.207031 799.859375 986.492188 776.175781 993.476562 758.511719 C 996.054688 751.992188 999.410156 748.378906 1000.140625 740.714844 C 997.484375 744.089844 993.246094 751.550781 990.621094 755.671875 C 987.429688 760.675781 983.773438 765.351562 980.507812 770.300781 C 962.679688 797.304688 962.964844 819.261719 959.878906 849.039062 C 957.667969 870.410156 956.351562 878.292969 941.75 879.800781 "/>
<path fill-rule="evenodd" fill="rgb(85.546875%, 45.483398%, 4.707336%)" fill-opacity="1" d="M 1511.769531 757.027344 C 1508.230469 762.5 1518.679688 771.808594 1528.859375 761.484375 C 1546.019531 744.078125 1546.039062 727.253906 1580.761719 712.4375 C 1595.589844 706.109375 1611.101562 698.210938 1619.851562 684.234375 C 1629.890625 668.179688 1634.480469 650.769531 1634.480469 631.929688 C 1629.558594 640.320312 1627.238281 656.871094 1613.230469 672.679688 C 1599.609375 688.058594 1591.960938 688.304688 1574.148438 695.914062 C 1536.210938 712.121094 1534.210938 754.441406 1511.769531 757.027344 "/>
<path fill-rule="evenodd" fill="rgb(85.546875%, 45.483398%, 4.707336%)" fill-opacity="1" d="M 1585 642.480469 C 1585 623.691406 1591.210938 617.949219 1605.539062 603.621094 C 1615.789062 593.371094 1626.03125 583.28125 1632.511719 570.230469 C 1639.800781 555.550781 1644.398438 537.628906 1642.011719 521.128906 C 1640.679688 512 1634.410156 481.519531 1626.460938 476.199219 C 1630.53125 511.019531 1636.089844 534.550781 1613.179688 569.710938 C 1604.941406 582.371094 1559.320312 629.050781 1585 642.480469 "/>
<path fill-rule="evenodd" fill="rgb(92.1875%, 87.109375%, 77.34375%)" fill-opacity="1" d="M 1039.789062 1349.046875 C 1044.71875 1352.390625 1055.851562 1349.628906 1060.691406 1346.261719 C 1082 1331.433594 1086.96875 1275.277344 1061.269531 1249.324219 C 1054.199219 1242.191406 1039.140625 1230.242188 1028.960938 1229.304688 C 1031.898438 1234.722656 1044.21875 1245.671875 1049.371094 1252.296875 C 1058.480469 1264.027344 1058.769531 1270.785156 1059.871094 1285.328125 C 1060.859375 1298.402344 1062.988281 1312.511719 1059.289062 1325.203125 C 1054.949219 1340.109375 1047.648438 1339.535156 1039.789062 1349.046875 "/>
<path fill-rule="evenodd" fill="rgb(93.75%, 51.367188%, 9.008789%)" fill-opacity="1" d="M 1370.25 955.179688 C 1379.210938 959.371094 1394.921875 951.816406 1403.261719 947.605469 C 1414.339844 942.007812 1419.929688 935.671875 1427.910156 926.734375 C 1440.539062 912.585938 1457.359375 884.296875 1457.339844 866.113281 C 1453.269531 867.324219 1450.558594 874.140625 1447.199219 877.738281 C 1435.308594 890.445312 1431.871094 896.027344 1415.53125 912.378906 L 1380.378906 942.539062 C 1375.46875 946.550781 1370.398438 948.230469 1370.25 955.179688 "/>
<path fill-rule="evenodd" fill="rgb(79.296875%, 72.459412%, 59.568787%)" fill-opacity="1" d="M 977.761719 1478.082031 C 980.253906 1469.515625 963.179688 1446.617188 957.011719 1431.757812 C 953.464844 1423.210938 950.566406 1415.386719 947.269531 1406.859375 C 945.332031 1401.84375 940.324219 1383.425781 938.386719 1380.800781 C 931.371094 1383.960938 933.308594 1403.433594 933.988281 1410.246094 C 935.773438 1428.136719 942.949219 1451.128906 954.164062 1465.285156 C 958.632812 1470.929688 970.148438 1480.296875 977.761719 1478.082031 "/>
<path fill-rule="evenodd" fill="rgb(85.546875%, 30.200195%, 5.099487%)" fill-opacity="1" d="M 885.007812 1018.078125 C 882.78125 1025.171875 895.179688 1028.136719 906.769531 1033.703125 C 915.117188 1037.707031 926.285156 1042.183594 934.929688 1045.128906 C 951.398438 1050.730469 968.730469 1050.269531 985.15625 1044.109375 C 994.675781 1040.539062 996.765625 1040.6875 997.167969 1036.328125 C 994.585938 1034.675781 990.15625 1036.371094 982.332031 1036.335938 C 964.867188 1036.246094 956.554688 1037.503906 938.492188 1029.6875 C 922.757812 1022.882812 901.910156 1013.445312 885.007812 1018.078125 "/>
<path fill-rule="evenodd" fill="rgb(93.75%, 51.367188%, 9.008789%)" fill-opacity="1" d="M 1201.238281 315.671875 C 1203.960938 317.53125 1213.660156 316.859375 1217.96875 317.75 C 1244.910156 323.300781 1262.828125 340.53125 1292.21875 329.890625 C 1298.371094 327.660156 1313.21875 321.109375 1313.851562 313.910156 C 1305.371094 308.339844 1288.648438 319.359375 1256.441406 313.921875 C 1246.191406 312.191406 1239.039062 309.921875 1227.75 309.941406 C 1221.109375 309.941406 1204.308594 311.019531 1201.238281 315.671875 "/>
<path fill-rule="evenodd" fill="rgb(85.546875%, 45.483398%, 4.707336%)" fill-opacity="1" d="M 1118.078125 238.691406 C 1113.640625 239.671875 1106.449219 243.75 1100.96875 245.511719 C 1093.609375 247.859375 1087.871094 248.871094 1079.269531 248.628906 C 1064.839844 248.238281 1055.089844 240.960938 1052.539062 226.851562 C 1047.648438 199.710938 1076.808594 168.609375 1079.308594 158.609375 C 1070.019531 162.359375 1056.019531 179.339844 1050.261719 187.878906 C 1041.769531 200.480469 1036.089844 217.671875 1040.539062 232.890625 C 1050.480469 266.890625 1104.121094 258.191406 1118.078125 238.691406 "/>
<path fill-rule="evenodd" fill="rgb(79.296875%, 72.459412%, 59.568787%)" fill-opacity="1" d="M 1113.941406 1157.0625 C 1127.628906 1157.039062 1141.421875 1139.445312 1135.128906 1115.09375 C 1132.851562 1106.273438 1130.601562 1097.675781 1129.070312 1088.496094 C 1128.238281 1083.515625 1127.648438 1078.789062 1126.808594 1073.9375 C 1125.871094 1068.535156 1126.671875 1064.378906 1123.839844 1060.078125 C 1108.460938 1072.132812 1120.5 1122.421875 1118.671875 1135.066406 C 1117.539062 1142.828125 1110.828125 1150.304688 1113.941406 1157.0625 "/>
<path fill-rule="evenodd" fill="rgb(85.546875%, 30.200195%, 5.099487%)" fill-opacity="1" d="M 1579.171875 774.1875 C 1581.320312 772.351562 1581.691406 765.550781 1583.96875 761.171875 C 1593.109375 743.578125 1618.730469 733.492188 1629.488281 716.632812 C 1631.871094 712.902344 1643.898438 692.597656 1635.558594 692.011719 C 1631.558594 691.726562 1620.058594 704.863281 1616.421875 708.515625 C 1606.230469 718.742188 1588.640625 730.8125 1581.011719 745.351562 C 1577.609375 751.835938 1572.230469 769.132812 1579.171875 774.1875 "/>
<path fill-rule="evenodd" fill="rgb(85.546875%, 30.200195%, 5.099487%)" fill-opacity="1" d="M 1596.808594 423.828125 C 1617.550781 409.710938 1600.828125 339.398438 1584.160156 339.890625 C 1584.121094 340.589844 1589.449219 369.039062 1587.269531 384.421875 C 1586.101562 392.710938 1587.96875 408.558594 1590.53125 417.238281 C 1591.941406 422.019531 1592.179688 422.46875 1596.808594 423.828125 "/>
<path fill-rule="evenodd" fill="rgb(85.546875%, 30.200195%, 5.099487%)" fill-opacity="1" d="M 1437.421875 413.730469 C 1437.769531 407.539062 1436.070312 407.351562 1437.078125 400.578125 C 1438.75 389.429688 1440.78125 369.609375 1439.621094 359.339844 C 1438.300781 347.648438 1429.378906 323.820312 1414.789062 323.800781 C 1413.980469 332.730469 1415.910156 335.238281 1419.101562 346.210938 C 1421.46875 354.398438 1423.238281 361.410156 1423.71875 370.289062 C 1424.238281 379.828125 1426.410156 411.710938 1437.421875 413.730469 "/>
<path fill-rule="evenodd" fill="rgb(85.546875%, 30.200195%, 5.099487%)" fill-opacity="1" d="M 1093.511719 211.328125 C 1095.671875 204.710938 1091.78125 201.261719 1097.519531 187.640625 C 1102.941406 174.769531 1112 165.898438 1112.011719 146.660156 C 1112.019531 139.808594 1111.078125 129.28125 1104 126.648438 C 1103.421875 127.789062 1101.730469 136.269531 1101.078125 138.738281 C 1095.609375 159.210938 1096.03125 154.128906 1086.558594 171.730469 C 1082.859375 178.601562 1078.289062 187.261719 1079.640625 194.75 C 1080.691406 200.558594 1085.519531 213.929688 1093.511719 211.328125 "/>
<path fill-rule="evenodd" fill="rgb(85.546875%, 30.200195%, 5.099487%)" fill-opacity="1" d="M 1180.828125 268.671875 C 1189.46875 271.550781 1205.851562 255.5 1211.738281 246.429688 C 1216.339844 239.339844 1225.550781 211.070312 1223.148438 203.710938 C 1208.738281 199.019531 1199.988281 238.539062 1191.449219 252.871094 C 1189.398438 256.308594 1180.730469 266.558594 1180.828125 268.671875 "/>
<path fill-rule="evenodd" fill="rgb(79.296875%, 72.459412%, 59.568787%)" fill-opacity="1" d="M 1244.261719 1242.019531 C 1246.070312 1239.488281 1245.691406 1235.207031 1246.71875 1231.445312 C 1250.929688 1215.976562 1261.46875 1205.417969 1266.488281 1186.890625 C 1273.910156 1159.472656 1256.820312 1164.671875 1243.449219 1201.457031 C 1239.570312 1212.128906 1234.320312 1239.777344 1244.261719 1242.019531 "/>
<path fill-rule="evenodd" fill="rgb(79.296875%, 72.459412%, 59.568787%)" fill-opacity="1" d="M 967.523438 1232.464844 C 972.738281 1227.859375 966.792969 1222.757812 988.820312 1214.027344 C 999.039062 1209.976562 1013.171875 1206.542969 1014.121094 1199.5 C 1006.058594 1189.472656 985.59375 1194.007812 976.789062 1200.015625 C 966.105469 1207.300781 958.726562 1221.324219 967.523438 1232.464844 "/>
<path fill-rule="evenodd" fill="rgb(85.546875%, 30.200195%, 5.099487%)" fill-opacity="1" d="M 812.390625 608.140625 C 812.914062 604.699219 809.390625 586.789062 809.148438 577.140625 C 809 571.269531 807.671875 568.019531 805.621094 562.851562 C 803.34375 557.109375 803.582031 554.171875 796.382812 554.488281 C 791.269531 562.828125 791.257812 577.921875 794.386719 587.941406 C 796.152344 593.589844 804.859375 610.710938 812.390625 608.140625 "/>
<path fill-rule="evenodd" fill="rgb(79.296875%, 72.459412%, 59.568787%)" fill-opacity="1" d="M 1272.351562 1472.605469 C 1287.519531 1469.972656 1298.480469 1427.347656 1288.890625 1413.59375 C 1277.078125 1412.6875 1276.71875 1445.125 1274.960938 1455.636719 L 1272.351562 1472.605469 "/>
<path fill-rule="evenodd" fill="rgb(85.546875%, 30.200195%, 5.099487%)" fill-opacity="1" d="M 817.171875 472.371094 C 819.785156 470.089844 825.398438 437.640625 828.347656 427.128906 C 829.671875 422.421875 833.652344 416.390625 832.164062 412.589844 C 825.082031 410.351562 814.898438 430.660156 812.957031 436.46875 C 809.734375 446.109375 807.214844 471.050781 817.171875 472.371094 "/>
<path fill-rule="evenodd" fill="rgb(92.1875%, 87.109375%, 77.34375%)" fill-opacity="1" d="M 1225.960938 1525.199219 C 1230.640625 1524.746094 1238.890625 1521.828125 1243.460938 1520.128906 C 1250.511719 1517.503906 1253.089844 1514.730469 1253.511719 1507.324219 C 1253.769531 1502.710938 1250.03125 1494.011719 1248.058594 1490.042969 C 1245.089844 1484.066406 1239.421875 1480.5625 1232.699219 1483.273438 C 1240.878906 1486.296875 1243.25 1500.136719 1240.871094 1507.671875 C 1237.78125 1517.488281 1230.761719 1519.132812 1225.960938 1525.199219 "/>
<path fill-rule="evenodd" fill="rgb(93.75%, 51.367188%, 9.008789%)" fill-opacity="1" d="M 1084.261719 988.824219 C 1076.800781 996.28125 1103.28125 1016.105469 1112.300781 1007.910156 C 1122.371094 998.75 1088.941406 984.144531 1084.261719 988.824219 "/>
<path fill-rule="evenodd" fill="rgb(85.15625%, 45.092773%, 5.099487%)" fill-opacity="1" d="M 978.136719 976.128906 C 974.65625 974.921875 961.585938 969.617188 959.222656 969.683594 C 961.140625 981.332031 986.628906 999.015625 996.421875 985.992188 C 995.0625 979.5625 983.789062 978.09375 978.136719 976.128906 "/>
<path fill-rule="evenodd" fill="rgb(85.546875%, 30.200195%, 5.099487%)" fill-opacity="1" d="M 829.1875 925.742188 C 831.007812 920.230469 821.097656 913.726562 816.664062 911.039062 C 808.210938 905.910156 803.210938 905.695312 793.308594 905.695312 C 793.734375 910.585938 795.78125 909.382812 800.019531 912.839844 C 806.578125 918.195312 821.203125 928.90625 829.1875 925.742188 "/>
<path fill-rule="evenodd" fill="rgb(95.701599%, 62.304688%, 11.767578%)" fill-opacity="1" d="M 1337.730469 461.269531 C 1346.03125 468.359375 1371.589844 460.808594 1371.628906 452.898438 C 1364.53125 447.871094 1336.738281 449.691406 1337.730469 461.269531 "/>
<path fill-rule="evenodd" fill="rgb(85.546875%, 30.200195%, 5.099487%)" fill-opacity="1" d="M 1645.371094 588.03125 C 1658.351562 587.78125 1662.730469 558.289062 1652.210938 551.328125 C 1646.578125 556.410156 1643.449219 580.070312 1645.371094 588.03125 "/>
<path fill-rule="evenodd" fill="rgb(93.75%, 51.367188%, 9.008789%)" fill-opacity="1" d="M 1403.558594 973.332031 C 1412.300781 976.246094 1429.558594 965.46875 1426.011719 954.839844 C 1419.488281 953.214844 1401.191406 965.808594 1403.558594 973.332031 "/>
<path fill-rule="evenodd" fill="rgb(79.296875%, 72.459412%, 59.568787%)" fill-opacity="1" d="M 935.8125 1456.914062 C 938.5 1451.613281 937.074219 1446.046875 934.359375 1440.554688 C 932.09375 1435.96875 928.5 1430.300781 922.949219 1430.195312 C 922.949219 1437.535156 922.09375 1440.957031 925.570312 1447.363281 C 928.0625 1451.960938 930.621094 1455.65625 935.8125 1456.914062 "/>
<path fill-rule="evenodd" fill="rgb(79.296875%, 72.459412%, 59.568787%)" fill-opacity="1" d="M 1274.261719 1222.375 C 1278.609375 1222.375 1280.988281 1223.355469 1283.621094 1210.949219 C 1284.539062 1206.578125 1284.710938 1196.195312 1281.191406 1193.675781 C 1277.128906 1194.953125 1276.011719 1202.144531 1274.890625 1206.179688 C 1272.398438 1215.125 1274.101562 1214.5625 1274.261719 1222.375 "/>
<path fill-rule="evenodd" fill="rgb(79.296875%, 72.459412%, 59.568787%)" fill-opacity="1" d="M 1096.21875 1107.664062 C 1102.261719 1102.730469 1102.828125 1086.40625 1097.210938 1081.765625 C 1089.46875 1084.503906 1087.890625 1105.09375 1096.21875 1107.664062 "/>
<path fill-rule="evenodd" fill="rgb(85.546875%, 30.200195%, 5.099487%)" fill-opacity="1" d="M 1394.828125 356.289062 C 1397.328125 349.378906 1394.539062 334.378906 1388.238281 330.980469 C 1384.300781 337.058594 1387.589844 355.101562 1394.828125 356.289062 "/>
<path fill-rule="evenodd" fill="rgb(93.75%, 51.367188%, 9.008789%)" fill-opacity="1" d="M 1314.578125 350.78125 C 1320.230469 352.640625 1329.011719 342.089844 1325.980469 334.429688 C 1320.941406 332.929688 1312.261719 344.929688 1314.578125 350.78125 "/>
<path fill-rule="evenodd" fill="rgb(93.75%, 52.146912%, 9.397888%)" fill-opacity="1" d="M 1171.890625 981.898438 C 1165.398438 977.308594 1163.019531 976.46875 1157 970.507812 C 1150.890625 964.449219 1150.039062 961.117188 1145.609375 954.6875 C 1145.761719 960.277344 1149.910156 968.65625 1153.089844 973.429688 C 1156.730469 978.894531 1165.628906 981.738281 1171.890625 981.898438 "/>
<path fill-rule="evenodd" fill="rgb(85.546875%, 30.200195%, 5.099487%)" fill-opacity="1" d="M 1231.710938 226.820312 C 1241.339844 226.628906 1241.871094 211.730469 1236.660156 208.019531 C 1229.871094 210.171875 1231.710938 220.648438 1231.710938 226.820312 "/>
<path fill-rule="evenodd" fill="rgb(85.9375%, 42.747498%, 5.099487%)" fill-opacity="1" d="M 970.085938 333.050781 C 975.648438 333.941406 987.609375 327.089844 987.769531 321.28125 C 982.515625 320.269531 970.25 327.398438 970.085938 333.050781 "/>
<path fill-rule="evenodd" fill="rgb(93.75%, 52.146912%, 9.397888%)" fill-opacity="1" d="M 1205.179688 490.058594 C 1199.808594 482.710938 1193.75 484.039062 1198.398438 470.269531 C 1194.539062 472.5 1193.289062 478.429688 1194.210938 482.980469 C 1195.25 488.089844 1200.53125 489.03125 1205.179688 490.058594 "/>
<path fill-rule="evenodd" fill="rgb(82.421875%, 76.171875%, 63.084412%)" fill-opacity="1" d="M 1259.421875 1329.054688 C 1259.320312 1324.878906 1257 1319.210938 1255.601562 1315.261719 C 1254.078125 1310.976562 1252.359375 1305.230469 1249.058594 1302.535156 C 1251.011719 1308.730469 1255.679688 1324.78125 1259.421875 1329.054688 "/>
<path fill-rule="evenodd" fill="rgb(93.75%, 53.318787%, 9.397888%)" fill-opacity="1" d="M 1462.410156 795.851562 C 1467.5 794.363281 1475.621094 786.75 1476.140625 781.1875 L 1462.410156 795.851562 "/>
<path fill-rule="evenodd" fill="rgb(85.15625%, 29.80957%, 5.099487%)" fill-opacity="1" d="M 1061.75 1002.59375 L 1062.609375 999.734375 C 1061.730469 1000.730469 1061.351562 998.417969 1061.75 1002.59375 "/>
<path fill-rule="evenodd" fill="rgb(85.9375%, 30.200195%, 4.707336%)" fill-opacity="1" d="M 837.839844 539.539062 L 838.136719 539.238281 C 838.117188 539.261719 837.742188 539.441406 837.839844 539.539062 "/>
</svg>
